<?xml version="1.0" encoding="utf-8"?>
<!-- Generator: Adobe Illustrator 21.0.0, SVG Export Plug-In . SVG Version: 6.00 Build 0)  -->
<svg version="1.1" id="Layer_1" xmlns="http://www.w3.org/2000/svg" xmlns:xlink="http://www.w3.org/1999/xlink" x="0px" y="0px"
	 viewBox="0 0 25 25" style="enable-background:new 0 0 25 25;" xml:space="preserve">
<style type="text/css">
	.st0{fill:#F89829;}
</style>
<title>Shield</title>
<path class="st0" d="M12.5,25L12.5,25c-0.1,0-0.2,0-0.3-0.1C0.9,20.2,1,9.1,1,4.9V4.5C1,4.2,1.2,4,1.5,4h1.4c3.5,0,6.2-1.8,9.3-3.9
	c0.2-0.1,0.4-0.1,0.6,0c3,2.1,5.8,3.9,9.3,3.9h1.4C23.8,4,24,4.2,24,4.5v0.4c0,4.2,0.1,15.3-11.2,20C12.7,25,12.6,25,12.5,25z M2,5
	c0,4.4,0,14.5,10.5,19C23,19.5,23,9.4,23,5h-1c-3.6,0-6.5-1.7-9.6-3.9C9.4,3.3,6.6,5,2.9,5H2z M12.5,21.7c-0.1,0-0.2,0-0.2,0
	C7,19,4.3,14.4,4,7.4c0-0.3,0.2-0.5,0.4-0.5c2.8-0.4,5.5-1.5,7.8-3.2c0.2-0.1,0.4-0.1,0.6,0c2.3,1.7,5,2.7,7.8,3.2
	c0.3,0,0.5,0.3,0.4,0.5c-0.3,7-3,11.6-8.2,14.2C12.6,21.7,12.6,21.7,12.5,21.7z M5.1,7.8c0.4,6.2,2.8,10.4,7.4,12.8
	c4.6-2.4,7.1-6.6,7.5-12.8c-2.7-0.5-5.2-1.5-7.5-3.1C10.3,6.3,7.7,7.4,5.1,7.8z"/>
</svg>
