<?xml version="1.0" encoding="utf-8"?>
<!-- Generator: Adobe Illustrator 21.0.0, SVG Export Plug-In . SVG Version: 6.00 Build 0)  -->
<svg version="1.1" id="Layer_1" xmlns="http://www.w3.org/2000/svg" xmlns:xlink="http://www.w3.org/1999/xlink" x="0px" y="0px"
	 viewBox="0 0 25 25" style="enable-background:new 0 0 25 25;" xml:space="preserve">
<style type="text/css">
	.st0{fill:#F89829;}
</style>
<title>Person-Location-2</title>
<path class="st0" d="M17.7,18l-0.1,1c4.7,0.6,6.4,1.7,6.4,2.3c0,1.1-4.5,2.7-11.5,2.7S1,22.4,1,21.4c0-0.6,1.7-1.8,6.4-2.3l-0.1-1
	C5.1,18.3,0,19.1,0,21.4C0,23.7,6.3,25,12.5,25S25,23.7,25,21.4C25,19.1,19.9,18.3,17.7,18z"/>
<path class="st0" d="M7.2,15H9v6.5C9,21.8,9.2,22,9.5,22h6c0.3,0,0.5-0.2,0.5-0.5V15h1.8c0.7,0,1.2-0.6,1.2-1.2V9.5
	C19,7.6,17.4,6,15.5,6h-0.6c1.4-1.4,1.4-3.6,0.1-4.9S11.4-0.4,10.1,1S8.7,4.6,10,5.9c0,0,0,0,0.1,0.1H9.5C7.6,6,6,7.6,6,9.5v4.2
	C6,14.4,6.6,15,7.2,15z M10,3.5C10,2.1,11.1,1,12.5,1S15,2.1,15,3.5S13.9,6,12.5,6S10,4.9,10,3.5z M7,9.5C7,8.1,8.1,7,9.5,7h6
	C16.9,7,18,8.1,18,9.5v4.2c0,0.1-0.1,0.2-0.2,0.2h-2.2c-0.3,0-0.5,0.2-0.5,0.5V21h-5v-6.5c0-0.3-0.2-0.5-0.5-0.5H7.2
	C7.1,14,7,13.9,7,13.8V9.5z"/>
</svg>
