<?xml version="1.0" encoding="utf-8"?>
<!-- Generator: Adobe Illustrator 21.0.0, SVG Export Plug-In . SVG Version: 6.00 Build 0)  -->
<svg version="1.1" id="Layer_1" xmlns="http://www.w3.org/2000/svg" xmlns:xlink="http://www.w3.org/1999/xlink" x="0px" y="0px"
	 viewBox="0 0 25 25" style="enable-background:new 0 0 25 25;" xml:space="preserve">
<style type="text/css">
	.st0{fill:#F89829;}
</style>
<path class="st0" d="M5.1,14.9c-0.2-0.2-0.2-0.5,0-0.7l3-3l0.7,0.7l-2.6,2.6l2.6,2.6l-0.7,0.7L5.1,14.9z M16.9,17.9l3-3
	c0.2-0.2,0.2-0.5,0-0.7l-3-3l-0.7,0.7l2.6,2.6l-2.6,2.6L16.9,17.9z M15,10.7l-0.9-0.4l-4,8l0.9,0.4L15,10.7z M25,3.2v18.5
	c0,0.7-0.6,1.2-1.2,1.2H1.2C0.6,23,0,22.4,0,21.8V3.2C0,2.6,0.6,2,1.2,2h22.5C24.4,2,25,2.6,25,3.2z M24,8H1v13.8
	C1,21.9,1.1,22,1.2,22h22.5c0.1,0,0.2-0.1,0.2-0.2V8z M24,3.2C24,3.1,23.9,3,23.8,3H1.2C1.1,3,1,3.1,1,3.2V7h23V3.2z M3,4
	C2.4,4,2,4.4,2,5s0.4,1,1,1s1-0.4,1-1S3.6,4,3,4z M6,4C5.4,4,5,4.4,5,5s0.4,1,1,1s1-0.4,1-1S6.6,4,6,4z M9,4C8.4,4,8,4.4,8,5
	s0.4,1,1,1s1-0.4,1-1S9.6,4,9,4z"/>
</svg>
