<?xml version="1.0" encoding="utf-8"?>
<!-- Generator: Adobe Illustrator 21.0.0, SVG Export Plug-In . SVG Version: 6.00 Build 0)  -->
<svg version="1.1" id="Layer_1" xmlns="http://www.w3.org/2000/svg" xmlns:xlink="http://www.w3.org/1999/xlink" x="0px" y="0px"
	 viewBox="0 0 25 25" style="enable-background:new 0 0 25 25;" xml:space="preserve">
<style type="text/css">
	.st0{fill:#F89829;}
</style>
<title>Share-2</title>
<path class="st0" d="M21,16c-1.4,0-2.7,0.7-3.4,1.9l-8.8-4c0.3-0.9,0.3-1.9,0-2.8l8.8-4c1.2,1.9,3.6,2.4,5.5,1.3s2.4-3.6,1.3-5.5
	s-3.6-2.4-5.5-1.3c-1.5,1-2.2,2.9-1.7,4.6l-8.8,4c-1.3-2.1-4-2.8-6.2-1.6s-2.8,4-1.6,6.2s4,2.8,6.2,1.6C7.4,16,8,15.5,8.4,14.8
	l8.8,4c-0.7,2.1,0.5,4.4,2.6,5s4.4-0.5,5-2.6s-0.5-4.4-2.6-5C21.8,16.1,21.4,16,21,16z M21,2c1.7,0,3,1.3,3,3s-1.3,3-3,3s-3-1.3-3-3
	S19.3,2,21,2z M4.5,16C2.6,16,1,14.4,1,12.5S2.6,9,4.5,9S8,10.6,8,12.5S6.4,16,4.5,16z M21,23c-1.7,0-3-1.3-3-3s1.3-3,3-3s3,1.3,3,3
	S22.7,23,21,23z"/>
</svg>
