<?xml version="1.0" encoding="utf-8"?>
<!-- Generator: Adobe Illustrator 21.0.0, SVG Export Plug-In . SVG Version: 6.00 Build 0)  -->
<svg version="1.1" id="Layer_1" xmlns="http://www.w3.org/2000/svg" xmlns:xlink="http://www.w3.org/1999/xlink" x="0px" y="0px"
	 viewBox="0 0 25 25" style="enable-background:new 0 0 25 25;" xml:space="preserve">
<style type="text/css">
	.st0{fill:#F89829;}
</style>
<title>Zoom-Out</title>
<path class="st0" d="M24.9,24.1l-0.7,0.7l-8.3-8.3C12,20.1,6,19.7,2.4,15.8S-0.8,5.9,3.1,2.4s9.9-3.2,13.4,0.7
	c3.3,3.6,3.3,9.1,0,12.7L24.9,24.1z M18,9.5C18,4.8,14.2,1,9.5,1S1,4.8,1,9.5S4.8,18,9.5,18C14.2,18,18,14.2,18,9.5z"/>
<path class="st0" d="M10.8,2.3H8.2C7.6,2.3,7,2.9,7,3.6v5.5c0,0.7,0.6,1.2,1.2,1.2h2.5c0.7,0,1.2-0.6,1.2-1.2V3.6
	C12,2.9,11.4,2.3,10.8,2.3z M11,9.1c0,0.1-0.1,0.2-0.2,0.2H8.2C8.1,9.3,8,9.2,8,9.1V3.6c0-0.1,0.1-0.2,0.2-0.2h2.5
	c0.1,0,0.2,0.1,0.2,0.2V9.1z M9.5,11.3c-1.4,0-2.5,1.1-2.5,2.5s1.1,2.5,2.5,2.5s2.5-1.1,2.5-2.5S10.9,11.3,9.5,11.3z M9.5,15.3
	c-0.8,0-1.5-0.7-1.5-1.5s0.7-1.5,1.5-1.5S11,13,11,13.8S10.3,15.3,9.5,15.3z"/>
</svg>
