<?xml version="1.0" encoding="utf-8"?>
<!-- Generator: Adobe Illustrator 21.0.0, SVG Export Plug-In . SVG Version: 6.00 Build 0)  -->
<svg version="1.1" id="Layer_1" xmlns="http://www.w3.org/2000/svg" xmlns:xlink="http://www.w3.org/1999/xlink" x="0px" y="0px"
	 viewBox="0 0 25 25" style="enable-background:new 0 0 25 25;" xml:space="preserve">
<style type="text/css">
	.st0{fill:#F89829;}
</style>
<title>Target-Arrow</title>
<path class="st0" d="M12.1,12.9c0.2,0.2,0.5,0.2,0.7,0c0,0,0,0,0,0L17.7,8H21c0.1,0,0.3-0.1,0.4-0.2l3.5-4c0.2-0.2,0.2-0.5,0-0.7
	C24.7,3,24.6,3,24.5,3h-1.8l1.6-1.6c0.2-0.2,0.2-0.5,0-0.7c-0.2-0.2-0.5-0.2-0.7,0L22,2.3V0.5C22,0.2,21.8,0,21.5,0
	c-0.1,0-0.2,0-0.3,0.1l-3,2.6c-0.4-0.3-0.8-0.5-1.3-0.7C10.8-0.7,3.7,2.1,1.1,8.1s0.1,13.1,6.1,15.8s13.1-0.1,15.8-6.1
	c1.4-3.1,1.4-6.6,0-9.7l-0.9,0.4c2.5,5.6,0,12.1-5.6,14.5S4.5,23,2,17.5S2,5.4,7.6,2.9c2.8-1.3,6.1-1.3,8.9,0
	c0.3,0.1,0.6,0.3,0.9,0.5l-0.2,0.2C17.1,3.7,17,3.9,17,4v2.8C15.6,5.6,13.8,5,12,5c-4.4,0-8,3.6-8,8s3.6,8,8,8s8-3.6,8-8
	c0-1.1-0.2-2.2-0.7-3.2l-0.9,0.4C18.8,11.1,19,12,19,13c0,3.9-3.1,7-7,7s-7-3.1-7-7s3.1-7,7-7c1.7,0,3.3,0.6,4.6,1.7l-2.1,2.1
	c-0.5-0.4-1.1-0.7-1.8-0.8C12.5,9,12.2,9,12,9c-2.2,0-4,1.8-4,4s1.8,4,4,4s4-1.8,4-4c0-0.2,0-0.5-0.1-0.7l-1,0.2
	c0,0.2,0.1,0.4,0.1,0.5c0,1.7-1.3,3-3,3s-3-1.3-3-3s1.3-3,3-3c0.2,0,0.4,0,0.5,0c0.4,0.1,0.9,0.3,1.2,0.5l-1.6,1.6
	C11.9,12.3,11.9,12.6,12.1,12.9C12.1,12.8,12.1,12.8,12.1,12.9z M20.8,7h-2.1l3-3h1.7L20.8,7z M21,3.3l-3,3V4.2l3-2.6V3.3z"/>
</svg>
