<?xml version="1.0" encoding="utf-8"?>
<!-- Generator: Adobe Illustrator 21.0.0, SVG Export Plug-In . SVG Version: 6.00 Build 0)  -->
<svg version="1.1" id="Layer_1" xmlns="http://www.w3.org/2000/svg" xmlns:xlink="http://www.w3.org/1999/xlink" x="0px" y="0px"
	 viewBox="0 0 25 25" style="enable-background:new 0 0 25 25;" xml:space="preserve">
<style type="text/css">
	.st0{fill:#F89829;}
</style>
<title>Line-Bar-Graph</title>
<path class="st0" d="M20.2,3.8c1,0.4,2.2-0.1,2.6-1.1c0.4-1-0.1-2.2-1.1-2.6s-2.2,0.1-2.6,1.1C19.1,1.5,19,1.7,19,2
	c0,0.5,0.2,0.9,0.4,1.2l-3.7,4.9c-0.6-0.3-1.4-0.2-1.9,0.2l-3-2.5C11,5.6,11,5.3,11,5c0-1.1-0.9-2-2-2S7,3.9,7,5
	c0,0.4,0.1,0.8,0.4,1.1l-3.5,4.1C3.6,10.1,3.3,10,3,10c-1.1,0-2,0.9-2,2s0.9,2,2,2s2-0.9,2-2c0-0.4-0.1-0.8-0.4-1.1l3.5-4.1
	c0.6,0.3,1.4,0.2,2-0.2l3,2.5C13,9.4,13,9.7,13,10c0,1.1,0.9,2,2,2s2-0.9,2-2c0-0.5-0.2-0.9-0.4-1.2L20.2,3.8z M21,1
	c0.6,0,1,0.4,1,1s-0.4,1-1,1s-1-0.4-1-1S20.4,1,21,1z M3,13c-0.6,0-1-0.4-1-1s0.4-1,1-1s1,0.4,1,1S3.6,13,3,13z M9,6
	C8.4,6,8,5.6,8,5s0.4-1,1-1s1,0.4,1,1S9.6,6,9,6z M15,11c-0.6,0-1-0.4-1-1s0.4-1,1-1s1,0.4,1,1S15.6,11,15,11z"/>
<path class="st0" d="M3.8,18H2.2C1.6,18,1,18.6,1,19.2V25h4v-5.8C5,18.6,4.4,18,3.8,18z M4,24H2v-4.8C2,19.1,2.1,19,2.2,19h1.5
	C3.9,19,4,19.1,4,19.2V24z"/>
<path class="st0" d="M15.8,16h-1.5c-0.7,0-1.2,0.6-1.2,1.2V25h4v-7.8C17,16.6,16.4,16,15.8,16z M16,24h-2v-6.8
	c0-0.1,0.1-0.2,0.2-0.2h1.5c0.1,0,0.2,0.1,0.2,0.2V24z"/>
<path class="st0" d="M9.8,14H8.2C7.6,14,7,14.6,7,15.2V25h4v-9.8C11,14.6,10.4,14,9.8,14z M10,24H8v-8.8C8,15.1,8.1,15,8.2,15h1.5
	c0.1,0,0.2,0.1,0.2,0.2V24z"/>
<path class="st0" d="M21.8,10h-1.5c-0.7,0-1.2,0.6-1.2,1.2V25h4V11.2C23,10.6,22.4,10,21.8,10z M22,24h-2V11.2
	c0-0.1,0.1-0.2,0.2-0.2h1.5c0.1,0,0.2,0.1,0.2,0.2V24z"/>
</svg>
