<?xml version="1.0" encoding="utf-8"?>
<!-- Generator: Adobe Illustrator 21.0.0, SVG Export Plug-In . SVG Version: 6.00 Build 0)  -->
<svg version="1.1" id="Layer_1" xmlns="http://www.w3.org/2000/svg" xmlns:xlink="http://www.w3.org/1999/xlink" x="0px" y="0px"
	 viewBox="0 0 25 25" style="enable-background:new 0 0 25 25;" xml:space="preserve">
<style type="text/css">
	.st0{fill:#F89829;}
</style>
<title>Battery-Full</title>
<path class="st0" d="M6.5,8h-3C3.2,8,3,8.2,3,8.5v8C3,16.8,3.2,17,3.5,17h3C6.8,17,7,16.8,7,16.5v-8C7,8.2,6.8,8,6.5,8z M6,16H4V9h2
	V16z M18.5,8h-3C15.2,8,15,8.2,15,8.5v8c0,0.3,0.2,0.5,0.5,0.5h3c0.3,0,0.5-0.2,0.5-0.5v-8C19,8.2,18.8,8,18.5,8z M18,16h-2V9h2V16z
	 M12.5,8h-3C9.2,8,9,8.2,9,8.5v8C9,16.8,9.2,17,9.5,17h3c0.3,0,0.5-0.2,0.5-0.5v-8C13,8.2,12.8,8,12.5,8z M12,16h-2V9h2V16z M23.8,9
	H22V6.2C22,5.6,21.4,5,20.8,5H1.2C0.6,5,0,5.6,0,6.2v12.5C0,19.4,0.6,20,1.2,20h19.5c0.7,0,1.2-0.6,1.2-1.2V16h1.8
	c0.7,0,1.2-0.6,1.2-1.2v-4.5C25,9.6,24.4,9,23.8,9z M24,14.8c0,0.1-0.1,0.2-0.2,0.2h-2.2c-0.3,0-0.5,0.2-0.5,0.5v3.2
	c0,0.1-0.1,0.2-0.2,0.2H1.2C1.1,19,1,18.9,1,18.8V6.2C1,6.1,1.1,6,1.2,6h19.5C20.9,6,21,6.1,21,6.2v3.2c0,0.3,0.2,0.5,0.5,0.5h2.2
	c0.1,0,0.2,0.1,0.2,0.2V14.8z"/>
</svg>
