<?xml version="1.0" encoding="utf-8"?>
<!-- Generator: Adobe Illustrator 21.0.0, SVG Export Plug-In . SVG Version: 6.00 Build 0)  -->
<svg version="1.1" id="Layer_1" xmlns="http://www.w3.org/2000/svg" xmlns:xlink="http://www.w3.org/1999/xlink" x="0px" y="0px"
	 viewBox="0 0 25 25" style="enable-background:new 0 0 25 25;" xml:space="preserve">
<style type="text/css">
	.st0{fill:#F89829;}
</style>
<title>Lightbulb-Idea</title>
<path class="st0" d="M2.7,3.2l2.8,2.8L4.8,6.8L2,3.9L2.7,3.2z M0,14h4v-1H0V14z M13,0h-1v4h1V0z M21,13v1h4v-1H21z M19,12.5
	c0,1.6-0.6,3.1-1.6,4.3l0,0c-0.9,1-1.4,2.2-1.4,3.5v1.2c0,1.9-1.6,3.5-3.5,3.5S9,23.4,9,21.5l0,0v-1.2c0-1.3-0.5-2.6-1.4-3.6
	c-2.3-2.7-2-6.8,0.8-9.1s6.8-2,9.1,0.8C18.4,9.5,19,11,19,12.5z M15,21h-5v0.5c0,1.4,1.1,2.5,2.5,2.5s2.5-1.1,2.5-2.5V21z M18,12.5
	c0-1.6-0.7-3.1-1.8-4.1C15,7.3,13.4,6.8,11.9,7c-2.4,0.3-4.4,2.2-4.8,4.6c-0.3,1.6,0.2,3.2,1.3,4.5c1,1.1,1.6,2.5,1.7,4h5
	c0.1-1.4,0.7-2.8,1.6-3.9C17.5,15.1,18,13.8,18,12.5z M21.9,3.2L19,6.1l0.7,0.7l2.8-2.8L21.9,3.2z"/>
</svg>
