<?xml version="1.0" encoding="utf-8"?>
<!-- Generator: Adobe Illustrator 21.0.0, SVG Export Plug-In . SVG Version: 6.00 Build 0)  -->
<svg version="1.1" id="Layer_1" xmlns="http://www.w3.org/2000/svg" xmlns:xlink="http://www.w3.org/1999/xlink" x="0px" y="0px"
	 viewBox="0 0 25 25" style="enable-background:new 0 0 25 25;" xml:space="preserve">
<style type="text/css">
	.st0{fill:#F89829;}
</style>
<path class="st0" d="M15.2,8.6l-0.3,0.9c-2.2-0.7-4.6-0.7-6.8,0L7.8,8.6C10.2,7.8,12.8,7.8,15.2,8.6z M18,11c-0.6,0-1,0.4-1,1
	s0.4,1,1,1s1-0.4,1-1S18.6,11,18,11z M25,12v3c0,1.2-0.8,2-2,2c-1.7,0-3,1.1-3,2.5V24h-2.8c-0.6,0-1-0.5-1.2-0.8l-0.8-1.9
	C15.1,21.1,15,21,15,21l-5.5,0c0,0-0.2,0.1-0.3,0.3l-0.8,1.8C8.2,23.5,7.8,24,7.3,24H4v-5.6c-1-1.1-1.7-2.2-2-3.3
	c-0.8-0.3-1.4-1-1.7-1.8c-0.3-0.8-0.2-1.8,0.4-2.6C1.1,10,1.9,9.6,2.8,9.5C4,7.5,6.1,6,8.6,5.5C8.2,4.9,8,4.2,8,3.5
	C8,1.6,9.6,0,11.5,0S15,1.6,15,3.5v0c0,0.7-0.2,1.4-0.6,2c0.4,0.1,0.9,0.2,1.3,0.4c0.9-1.1,2.2-1.5,2.8-1.7c0.9-0.2,1.8-0.2,2.9,0
	L22,4.4l-0.3,0.6c-0.9,1.6-1.2,2.9-1.2,4.5c0.4,0.5,0.7,1.1,0.9,1.6c0.7,0.5,2.1,1,3,1H25z M9,3.5C9,4.9,10.1,6,11.5,6
	S14,4.9,14,3.5v0C14,2.1,12.9,1,11.5,1S9,2.1,9,3.5z M24,12.9c-1.1-0.1-2.5-0.6-3.2-1.2l-0.1-0.1l0-0.1c-0.2-0.6-0.5-1.1-0.9-1.6
	l-0.1-0.1l0-0.2c-0.1-1.6,0.2-2.9,1-4.5C19.9,5,19.3,5,18.8,5.1c-1.1,0.3-2,0.9-2.5,1.6l-0.2,0.3l-0.4-0.2c-0.7-0.3-1.4-0.5-2.2-0.6
	C13,6.8,12.3,7,11.5,7c-0.7,0-1.4-0.2-2-0.6c-2.6,0.3-4.9,1.8-5.9,3.9l-0.2,0.3l-0.5,0c-0.6,0-1.2,0.3-1.5,0.8C1,12,1.1,12.6,1.2,13
	c0.2,0.6,0.7,1.1,1.3,1.2l0.3,0.1l0.1,0.3c0.2,1.1,0.9,2.1,1.9,3.2L5,18v5h2.3c0,0,0.2-0.1,0.3-0.3l0.8-1.8C8.5,20.4,8.9,20,9.5,20
	H15c0.5,0,1,0.4,1.2,0.9l0.8,1.9c0.1,0.1,0.2,0.2,0.3,0.2H19v-3.5c0-2,1.7-3.5,4-3.5c0.6,0,1-0.4,1-1V12.9z"/>
</svg>
