<?xml version="1.0" encoding="utf-8"?>
<!-- Generator: Adobe Illustrator 21.0.0, SVG Export Plug-In . SVG Version: 6.00 Build 0)  -->
<svg version="1.1" id="Layer_1" xmlns="http://www.w3.org/2000/svg" xmlns:xlink="http://www.w3.org/1999/xlink" x="0px" y="0px"
	 viewBox="0 0 25 25" style="enable-background:new 0 0 25 25;" xml:space="preserve">
<style type="text/css">
	.st0{fill:#F89829;}
</style>
<title>Scale</title>
<path class="st0" d="M24.9,11.3L24.9,11.3L21.1,4H23V3h-8.1c-0.3-1.4-1.6-2.2-2.9-2c-1,0.2-1.8,1-2,2H2v1h1.9l-3.9,7.3l0,0
	C0,11.3,0,11.4,0,11.5C0.1,14,2,15.9,4.5,16C7,15.9,8.9,14,9,11.5c0-0.1,0-0.2-0.1-0.2l0,0L5.1,4h5c0.2,1,1,1.7,1.9,1.9V19
	c-2.7,0.2-5,2.2-5,4.5C7,23.8,7.2,24,7.5,24c0,0,0,0,0,0h10c0.3,0,0.5-0.2,0.5-0.5c0-2.3-2.3-4.3-5-4.5V5.9c1-0.2,1.8-1,2-1.9h5
	l-3.9,7.3l0,0c0,0.1-0.1,0.1-0.1,0.2c0.1,2.5,2,4.4,4.5,4.5c2.5-0.1,4.4-2,4.5-4.5C25,11.4,25,11.3,24.9,11.3z M4.5,5.1L7.7,11H1.3
	L4.5,5.1z M4.5,15c-1.7,0-3.2-1.3-3.5-3h7C7.7,13.7,6.2,15,4.5,15z M16.9,23H8.1c0.7-1.9,2.5-3.1,4.4-3C14.5,19.9,16.3,21.1,16.9,23
	z M12.5,5C11.7,5,11,4.3,11,3.5S11.7,2,12.5,2S14,2.7,14,3.5S13.3,5,12.5,5z M23.7,11h-6.3l3.2-5.9L23.7,11z M20.5,15
	c-1.7,0-3.2-1.3-3.5-3h7C23.7,13.7,22.2,15,20.5,15z"/>
</svg>
