<svg id="Layer_1" data-name="Layer 1" xmlns="http://www.w3.org/2000/svg" viewBox="0 0 25 25"><defs><style>.cls-1{fill:#f89829;}</style></defs><title>Award-Ribbon</title><path class="cls-1" d="M17,8.51A4.5,4.5,0,1,0,12.5,13,4.5,4.5,0,0,0,17,8.51ZM12.5,12A3.5,3.5,0,1,1,16,8.51,3.5,3.5,0,0,1,12.5,12Z"/><path class="cls-1" d="M22,22.11l-3.71-9.28a.5.5,0,0,1,0-.1,2.37,2.37,0,0,1,.85-.47c.58-.23,1.24-.5,1.44-1.12a2.18,2.18,0,0,0-.5-1.76,2.33,2.33,0,0,1-.41-.87,2.34,2.34,0,0,1,.41-.85A2.19,2.19,0,0,0,20.6,5.9c-.2-.61-.84-.87-1.42-1.11a2.37,2.37,0,0,1-.87-.48,2.38,2.38,0,0,1-.19-1,2.15,2.15,0,0,0-.61-1.69,2.19,2.19,0,0,0-1.84-.07,2.32,2.32,0,0,1-.94.12A2.34,2.34,0,0,1,14,1c-.4-.48-.86-1-1.51-1h0c-.64,0-1.1.54-1.51,1a2.37,2.37,0,0,1-.71.66,2.3,2.3,0,0,1-.92-.13,2.2,2.2,0,0,0-1.86.06,2.21,2.21,0,0,0-.64,1.75,2.29,2.29,0,0,1-.17.91,2.35,2.35,0,0,1-.85.47c-.58.24-1.23.5-1.44,1.12a2.18,2.18,0,0,0,.5,1.76,2.33,2.33,0,0,1,.41.87,2.34,2.34,0,0,1-.41.85,2.19,2.19,0,0,0-.51,1.77c.2.61.84.87,1.42,1.11a2.37,2.37,0,0,1,.87.48l0,.06L3,22.12a.5.5,0,0,0,.62.66l3.08-1L8,24.71a.5.5,0,0,0,.46.29h0A.5.5,0,0,0,9,24.69c1.89-4.6,2.74-6.73,3.08-7.77a1.18,1.18,0,0,0,.45.09h0a1.17,1.17,0,0,0,.51-.13c.31,1,1.14,3.11,3,7.8a.5.5,0,0,0,.45.31h0a.5.5,0,0,0,.46-.29l1.32-2.9,3.08,1a.5.5,0,0,0,.61-.66ZM8.46,23.24,7.44,21a.5.5,0,0,0-.61-.27l-2.5.79L7,14.69a1.29,1.29,0,0,0,.45.69,2.2,2.2,0,0,0,1.84.07,2.34,2.34,0,0,1,.94-.12A2.33,2.33,0,0,1,11,16l.24.28C10.92,17.15,9.55,20.58,8.46,23.24Zm4-7.23h0c-.19,0-.51-.39-.75-.67a2.8,2.8,0,0,0-1.15-1,1.49,1.49,0,0,0-.46-.07,4.41,4.41,0,0,0-1,.17c-.36.09-.86.21-1,.1s-.18-.62-.2-1a2.86,2.86,0,0,0-.37-1.49,2.86,2.86,0,0,0-1.3-.82c-.32-.13-.79-.33-.85-.49s.21-.62.41-.93A2.77,2.77,0,0,0,6.33,8.5a2.79,2.79,0,0,0-.56-1.4c-.19-.31-.46-.74-.4-.92s.52-.36.86-.5a2.82,2.82,0,0,0,1.29-.8,2.73,2.73,0,0,0,.36-1.43c0-.38.06-.89.23-1s.67,0,1,.1a2.71,2.71,0,0,0,1.47.11,2.83,2.83,0,0,0,1.17-1c.24-.28.56-.66.74-.66s.51.39.75.67a2.8,2.8,0,0,0,1.15,1,2.77,2.77,0,0,0,1.49-.1c.36-.09.86-.21,1-.1s.18.62.2,1A2.86,2.86,0,0,0,17.5,4.9a2.85,2.85,0,0,0,1.3.82c.32.13.79.32.85.49s-.21.62-.41.93a2.77,2.77,0,0,0-.56,1.38,2.79,2.79,0,0,0,.56,1.4c.19.31.46.74.4.92s-.52.36-.86.5a2.83,2.83,0,0,0-1.28.8,2.74,2.74,0,0,0-.36,1.43c0,.38-.06.89-.23,1s-.67,0-1-.1a2.74,2.74,0,0,0-1.47-.11,2.82,2.82,0,0,0-1.17,1C13,15.63,12.67,16,12.48,16Zm5.66,4.71a.5.5,0,0,0-.61.27l-1,2.24c-1.12-2.79-2.55-6.44-2.7-7L14,16a2.36,2.36,0,0,1,.71-.66,2.33,2.33,0,0,1,.92.13,2.22,2.22,0,0,0,1.86-.06,1.3,1.3,0,0,0,.45-.65l2.7,6.76Z"/></svg>